<?xml version="1.0"?><svg width="949.26874" height="1239.9321" xmlns="http://www.w3.org/2000/svg">
 <title>Black piano silhouette</title>

 <metadata id="metadata4314">image/svg+xml</metadata>
 <g>
  <title>Layer 1</title>
  <g id="layer1">
   <g fill="#194a70" id="g3406" transform="matrix(0.879895 0 0 0.879895 -93.2277 322.567)">
    <path fill="#000000" fill-rule="evenodd" id="path2895" d="m984.785889,-366.596558c64.337158,15.849854 130.304932,33.330383 200.010132,54.548218c-62.256958,64.721252 -130.578003,117.314514 -197.989868,171.725952c-19.37207,26.781647 136.62146,58.788757 116.16748,91.923889c-31.781738,50.58371 -70.604492,87.085403 -113.136963,116.167534l57.578613,114.14724c54.515381,1.928802 80.961182,7.867554 97.984863,15.152283c17.45105,9.01239 10.621216,14.380783 2.020264,18.182755l1.010254,70.710663c9.428101,7.407776 12.121704,13.468719 8.081177,18.18277c-7.448242,52.406891 -9.964966,119.608124 -12.121948,187.888367l7.071167,1.010132c3.364258,22.891144 -1.608032,29.109039 -3.030518,42.426422l-7.071045,4.040588c-28.644653,54.64917 -42.895142,48.122314 -61.619263,60.609131c5.719727,27.750122 -17.200439,22.768921 -28.284302,31.314819c-15.611572,8.831177 -15.299927,15.008484 -15.152344,21.213196c12.768677,-4.165894 14.14978,-0.197815 8.081299,9.09137c1.655762,17.776428 -4.749634,19.945801 -8.081299,25.253784c5.059937,8.754639 1.582764,17.509338 -4.040527,26.263916c2.432861,12.871094 -4.910645,15.965942 -10.101501,21.213196c7.518372,7.445496 1.377747,17.167542 -7.071106,27.274231c0.944092,9.058289 -5.022339,14.661377 -9.09137,21.213196c-2.788391,9.02832 6.001892,25.775574 -11.111755,25.253784c-1.229614,8.940125 3.341553,15.946472 -5.050659,27.274109c-7.494568,50.497314 -25.400146,59.350464 -40.406128,79.802002c-23.59314,8.592285 -16.149658,34.427124 -17.172607,55.558411c12.325806,7.744507 8.482788,15.489014 8.081177,23.233459c27.020386,21.704956 9.712769,29.77063 4.040649,41.41626c-15.489014,12.448975 -30.978027,4.625732 -46.467041,5.050781c-11.180847,-5.724121 -11.408203,-11.448242 -12.121826,-17.172485c-19.996948,1.720581 -14.455139,-16.989624 -8.081238,-36.36554c5.730652,-31.988159 -0.438171,-63.976318 -5.05072,-95.964478c-4.614258,-14.642822 -5.015259,-28.081848 9.091309,-37.375732c-51.653564,-66.679504 -24.536133,-84.489197 -20.203003,-115.662415c-5.298645,-11.339294 1.321411,-23.048157 0.505127,-34.850281c3.703857,7.910095 2.862061,18.833313 6.565979,24.243713c2.987488,-8.849609 9.152588,-16.904785 2.020325,-28.284302c-23.906982,9.072693 -47.813965,13.025696 -71.720825,27.274109l-134.350281,-46.467041l-17.172668,51.517822c3.964539,4.7901 10.976807,6.532532 10.101563,16.162415c3.774719,6.084595 3.295715,10.75116 -1.010132,14.142212c-4.893921,9.473999 -8.904175,15.413452 -11.111694,14.14209l-3.030518,29.294373c0.328125,8.7677 5.483154,10.294739 11.111755,11.111694c4.605347,6.842896 13.310852,9.585938 13.131897,21.213196l30.304565,17.172607l-7.071045,6.060913l0,26.263977l12.121887,6.060913l-72.730957,43.436523l-67.680237,-31.314697c-3.846436,8.132996 -6.57312,18.50531 -18.182739,11.111694c-16.566833,-3.997681 -11.920044,-11.852417 1.010132,-21.213196l-19.192871,-8.081238c-16.917755,4.076843 -33.800995,8.067505 -45.456909,-1.010193c-7.647186,-9.507874 3.365631,-12.795776 11.111664,-17.172607l-11.111664,-4.040588l1.010132,-9.09137l12.121857,-3.030396l2.020294,-29.294434l-8.081207,-1.010193l1.010132,-8.081177c21.715424,-1.656006 21.361267,-6.990295 28.284271,-11.111694c-3.138,-16.854614 13.228882,-18.105225 22.223389,-25.253784l-1.010132,-32.324951l-13.132019,-9.09137c-4.841003,-7.523743 -6.885925,-14.348389 -1.010193,-19.192932c-0.060852,-10.223389 4.877747,-10.447571 10.101563,-10.101501l2.020325,-70.710693l-166.675201,-60.60907c-0.449829,9.407471 7.415649,0.521362 -5.050751,36.365417c-4.377319,6.005005 -8.754669,3.68042 -13.132019,-1.010071l10.101532,52.527893l-1.010132,66.670044c8.896332,7.035706 20.363159,13.428711 -2.020325,28.284302c-10.326904,8.075806 -22.338684,6.042297 -35.355316,-2.020325c-19.156372,1.32605 -13.410187,-11.578064 -15.152283,-20.203064l9.09137,-11.111633l7.071075,-15.152283c-3.205048,-71.321655 -38.515045,-69.260803 -58.588867,-102.025452c-9.047455,-4.899475 -18.950867,-8.372375 -20.203049,-26.263977c-4.053177,-7.039612 -10.920456,-7.044067 -10.101532,-26.263916c-9.182083,-19.497314 -7.337326,-22.454407 -6.060913,-26.263977c-34.536026,-14.17157 -66.892868,-27.526031 -122.228462,-49.497467l0,-33.335022l3.030457,-1.010162l1.010147,-11.111664l4.040611,0l-1.010147,-24.243683c33.693481,-19.176208 89.224915,-34.948761 83.842667,-74.751282c1.702347,-22.761261 -0.050919,-39.47525 -9.091385,-43.436554c-1.343414,-13.800262 0.151154,-23.343506 -6.060913,-44.446716c63.39769,-24.269821 145.97348,-19.772522 219.203094,-29.294434l3.030457,-8.081223l-7.071075,1.010147l-4.040619,-8.081223l19.192902,-13.131973c7.007568,-8.208237 10.489532,-23.467697 12.121857,-42.426422l17.172577,0c9.148712,-12.545288 15.929352,-26.143082 48.487335,-28.284264c164.991516,-161.961113 321.324036,-312.376717 494.974792,-485.883369zm-14.142212,443.45697l50.50769,100.005096c-68.016968,-7.237488 -136.033936,-6.725754 -204.050781,-6.060928c51.665222,-29.377701 104.370239,-54.59668 153.543213,-93.944176l-0.000122,0.000008zm16.162476,608.111877l30.304565,-17.172607c-17.126892,14.815613 -23.689331,29.631104 -30.304565,44.446716l-4.040649,-6.060913l7.071167,-8.081299c3.386841,-1.079468 4.284485,-4.026001 -3.030518,-13.131897zm-426.284424,-38.385803c0,4.040588 3.030457,60.60907 3.030457,60.60907c4.37738,0.729004 8.7547,-3.502563 13.132019,7.071106l-2.020264,16.162415c-2.050659,6.703979 -4.756836,12.752502 -12.121826,14.142212l-1.010193,28.28418l10.101563,14.142212l9.09137,6.060913l2.020264,7.070984l1.010132,-148.492371l-23.233521,-5.05072zm455.578918,47.477112l1.010071,162.634583l12.121826,3.030518l13.131958,-13.132019l2.020386,-33.335083c-5.050781,-1.83429 -10.101563,-3.989441 -15.152344,-11.111633c-4.223755,-5.050781 -1.856323,-10.10144 -1.010132,-15.152283c2.166748,-5.914612 7.379883,-8.782593 12.121826,-12.121887l3.030518,-73.741089l-27.274109,-7.071106zm53.538025,19.192871c-2.020264,4.040588 -2.020264,34.345215 -2.020264,34.345215l12.121826,-31.314697l-10.101563,-3.030518zm-790.949463,-170.715698c2.020325,8.081177 8.081207,21.213135 8.081207,21.213135l1.010162,-14.14209l-9.09137,-7.071045z"/>
   </g>
  </g>
 </g>
</svg>